<svg width="500" height="500" viewBox="0 0 500 500" fill="none" xmlns="http://www.w3.org/2000/svg">
<path d="M250 68.75C149.898 68.75 68.75 149.898 68.75 250C68.75 350.102 149.898 431.25 250 431.25C350.102 431.25 431.25 350.102 431.25 250C431.25 149.898 350.102 68.75 250 68.75Z" fill="#286CFC"/>
<path d="M250 77.8125C154.904 77.8125 77.8125 154.904 77.8125 250C77.8125 345.096 154.904 422.188 250 422.188C345.096 422.188 422.188 345.096 422.188 250C422.188 154.904 345.096 77.8125 250 77.8125Z" fill="white"/>
<path d="M250 85.9688C159.407 85.9688 85.9688 159.407 85.9688 250C85.9688 340.593 159.407 414.031 250 414.031C340.593 414.031 414.031 340.593 414.031 250C414.031 159.407 340.593 85.9688 250 85.9688ZM250 352.406C193.442 352.406 147.594 306.562 147.594 250C147.594 193.438 193.442 147.594 250 147.594C306.558 147.594 352.406 193.442 352.406 250C352.406 306.558 306.562 352.406 250 352.406Z" fill="#ED0037"/>
<path d="M159.963 277.864C164.265 291.756 171.486 303.936 180.742 313.945V271.436L156.729 236.354C154.747 249.843 155.665 263.972 159.963 277.864ZM208.445 311.528V262.865L180.956 222.704V185.866C175.865 191.356 171.462 197.413 167.825 203.902L180.742 222.772V271.44L208.232 311.597V334.463C214.898 337.761 221.95 340.275 229.257 341.93L208.449 311.528H208.445ZM236.148 254.286L263.638 294.443V343.11L236.148 302.949V254.282L208.659 214.121V165.457L236.148 205.614V254.282V254.286ZM263.851 245.714L236.362 205.553V156.89L263.851 197.051V245.714L291.341 285.875V334.543L263.851 294.382V245.714ZM222.136 159.963C208.099 164.309 195.81 171.632 185.741 181.028L208.445 214.197V262.865L235.935 303.022V343.215C249.549 345.277 263.827 344.383 277.864 340.037C291.901 335.695 304.19 328.364 314.259 318.976L291.555 285.807V237.143L264.065 196.982V156.789C250.451 154.727 236.173 155.621 222.136 159.967M319.262 277.232V228.564L291.772 188.403V165.538C285.106 162.239 278.049 159.725 270.747 158.07L291.555 188.472V237.139L319.044 277.3V314.138C324.135 308.648 328.534 302.591 332.175 296.102L319.262 277.232ZM340.037 222.136C335.735 208.244 328.513 196.064 319.262 186.055V228.568L343.275 263.65C345.257 250.161 344.339 236.032 340.041 222.14" fill="#286CFC"/>
<path d="M140.34 283.881L144.992 293.794L137.424 308.105C136.284 310.231 135.297 311.975 135.297 311.975L135.398 312.161C135.398 312.161 137.395 312.281 139.8 312.487L155.923 313.941L161.695 323.245L126.859 343.597L121.288 334.668L135.865 326.153C139.264 324.187 141.83 322.794 141.83 322.794L141.729 322.605C141.729 322.605 139.969 322.472 136.292 321.932L121.449 319.725L121.349 319.539L127.588 305.893C129.134 302.518 129.988 300.967 129.988 300.967L129.888 300.778C129.888 300.778 127.322 302.172 123.822 303.952L108.738 311.532L104.287 301.994L140.34 283.877V283.881Z" fill="white"/>
<path d="M167.04 327.865L175.071 334.998L158.944 354.187C156.298 357.372 156.431 360.724 160.434 363.873C164.438 367.027 167.725 366.371 170.202 363.052L185.076 342.877L193.893 349.011L178.624 369.685C171.623 379.175 162.557 377.302 154.719 371.127C146.881 364.953 142.938 356.575 150.518 347.549L167.04 327.857V327.865ZM183.107 340.923L173.194 347.847L173.029 347.714L177.436 336.456L183.107 340.923Z" fill="white"/>
<path d="M200.104 352.511L210.592 356.337L216.517 376.581C217.802 380.959 218.322 383.279 218.322 383.279L218.628 383.372C218.628 383.372 219.312 380.363 220.315 376.673L224.617 360.566L234.864 362.991L224.44 401.976L213.585 399.37L206.826 378.208C205.517 374.1 204.969 371.498 204.969 371.498L204.663 371.405C204.663 371.405 203.765 374.571 202.621 377.995L197.119 394.408L187.243 390.767L200.104 352.519V352.511Z" fill="white"/>
<path d="M278.622 387.424C278.843 396.985 272.854 403.563 261.415 404.336C250.717 405.061 240.704 400.208 240.124 384.604C239.532 368.791 248.28 362.878 258.555 362.181C269.676 361.428 276.108 367.643 277.216 376.081L266.413 376.814C265.419 373.157 263.465 371.002 258.7 371.324C254.254 371.627 251.124 375.723 251.462 383.839C251.825 392.325 255.345 395.6 260.323 395.262C265.302 394.923 267.481 392.543 267.714 388.165L278.626 387.424H278.622Z" fill="white"/>
<path d="M281.018 359.539L291.039 355.673L296.722 369.294L309.233 363.595L302.679 350.368L312.173 345.341L330.06 381.515L320.571 386.541L313.49 372.154L300.404 378.119L306.615 392.901L296.593 396.768L281.046 359.584L281.022 359.535L281.018 359.539Z" fill="white"/>
<path d="M318.508 340.6L337.826 322.093L344.04 328.195L331.929 339.799L336.549 344.926L348.274 333.689L354.343 339.638L342.232 351.242L347.255 356.869L360.897 343.794L367.111 349.897L345.498 370.607L318.508 340.6Z" fill="white"/>
<path d="M342.647 316.37L348.189 306.679L369.146 304.258C373.681 303.73 376.053 303.61 376.053 303.61L376.194 303.324C376.194 303.324 373.347 302.139 369.879 300.528L354.73 293.564L358.851 283.877L395.516 300.742L391.109 311L369.11 314.086C364.836 314.682 362.178 314.783 362.178 314.783L362.037 315.069C362.037 315.069 365.005 316.49 368.187 318.194L383.432 326.391L378.172 335.51L342.643 316.365L342.647 316.37Z" fill="white"/>
<path d="M111.875 182.789L119.971 185.991L113.507 203.91L121.067 206.412L127.117 189.64L135.011 192.77L129.138 209.042L143.276 213.637L140.235 223.936L101.568 211.338L111.871 182.785L111.875 182.789Z" fill="white"/>
<path d="M161.309 156.149C168.285 162.473 169.489 171.132 162.513 179.961C156.129 188.041 146.309 191.912 133.602 182.483C121.063 173.187 122.718 162.183 129.364 153.773C136.405 144.859 145.383 144.11 152.351 149.072L145.641 157.567C142.362 155.722 139.289 155.932 136.232 159.802C133.138 163.717 133.847 168.47 140.642 173.565C147.143 178.431 152.222 178.254 155.053 174.673C158.082 170.842 157.49 167.737 154.53 164.72L161.309 156.141V156.149Z" fill="white"/>
<path d="M187.835 110.474C194.965 107.179 201.945 106.466 205.022 113.756C207.547 119.722 205.944 122.332 202.827 124.946L202.94 125.187C206.267 124.41 210.725 124.571 213.561 131.213C216.972 139.224 211.748 143.86 204.615 147.155L189.535 154.123L171.458 118.042L187.839 110.474H187.835ZM193.889 125.099C196.684 123.806 197.482 122.501 196.354 119.806C195.271 117.208 193.426 117.011 190.727 118.255L184.706 121.039L188.109 127.769L193.889 125.099ZM200.704 139.84C203.789 138.414 204.631 137.206 203.326 134.129C202.11 131.241 199.975 131.177 196.89 132.602L191.686 135.007L195.355 142.313L200.704 139.84Z" fill="white"/>
<path d="M261.246 136.985L249.791 136.957L246.504 129.727L232.648 130.919L230.647 138.604L219.365 140.586L230.546 98.3907L243.024 97.3193L261.242 136.985H261.246ZM243.386 121.953L239.943 114.099C238.754 111.433 237.856 109.056 237.856 109.056L237.643 109.076C237.643 109.076 237.163 111.57 236.451 114.401L234.396 122.727L243.386 121.953Z" fill="white"/>
<path d="M271.436 125.143L262.067 96.4976L274.167 98.7974L277.828 110.945C278.517 113.269 279.125 115.734 279.125 115.734L279.33 115.779C279.33 115.779 280.905 113.785 282.496 111.96L290.866 102.426L302.833 105.351L282.432 127.532L279.31 140.92L268.729 138.624L271.436 125.147V125.143Z" fill="white"/>
<path d="M310.872 108.827L336.271 122.775L331.848 130.275L316.172 121.667L313.039 127.818L327.507 135.76L323.189 143.075L309.188 135.386L305.748 142.092L321.006 150.47L316.583 157.974L292.578 144.795L310.872 108.827Z" fill="white"/>
<path d="M350.32 133.698L362.641 146.881C368.945 153.628 370.451 160.137 362.947 166.718C358.15 170.911 354.658 172.071 350.433 170.424L343.988 186.688L336.38 177.38L342.273 164.1L338.756 160.338L329.275 169.779L321.489 162.38L350.32 133.694V133.698ZM344.778 154.349L348.947 158.808C351.267 161.289 353.216 161.353 355.806 159.077C358.36 156.838 358.319 154.695 355.999 152.214L351.613 147.522L344.774 154.349H344.778Z" fill="white"/>
<path d="M360.494 223.856L356.812 213.319L368.723 195.911C371.268 192.213 372.762 190.272 372.762 190.272L372.642 189.978C372.642 189.978 369.879 191.356 366.391 192.914L351.202 199.79L346.586 190.328L383.352 173.698L388.209 183.747L376.118 202.38C373.798 205.928 372.102 208.067 372.102 208.067L372.223 208.361C372.223 208.361 375.24 207.052 378.615 205.767L394.798 199.629L398.238 209.577L360.498 223.852L360.494 223.856Z" fill="white"/>
</svg>
